<svg class="t-sociallinks__svg" xmlns="http://www.w3.org/2000/svg" width="30" height="30" viewBox="0 0 48 48" xml:space="preserve"><path style="fill:#5f98c7" d="M24 .013C37.248.013 47.987 10.753 47.987 24c0 13.247-10.74 23.987-23.987 23.987C10.753 47.987.013 37.247.013 24 .013 10.753 10.752.013 24 .013Zm11.815 18.08c-.25-1.337-1.363-2.335-2.642-2.458-3.054-.196-6.119-.355-9.178-.357-3.059-.002-6.113.154-9.167.347-1.284.124-2.397 1.117-2.646 2.459a40.163 40.163 0 0 0 0 11.672c.249 1.342 1.362 2.454 2.646 2.577 3.055.193 6.107.39 9.167.39 3.058 0 6.126-.172 9.178-.37 1.279-.124 2.392-1.269 2.642-2.606a39.769 39.769 0 0 0 0-11.654Zm-14.591 9.342V20.32l6.627 3.558-6.627 3.557Z"/></svg>